Coordinates
version=1
nRows=19
nColumns=63
inDegrees=yes

Units are S.I. units (second, meters, Newtons, ...)
If the header above contains a line with 'inDegrees', this indicates whether rotational values are in degrees (yes) or radians (no).

endheader
time	pelvis_tilt	pelvis_list	pelvis_rotation	pelvis_tx	pelvis_ty	pelvis_tz	hip_flexion_r	hip_adduction_r	hip_rotation_r	knee_angle_r	knee_angle_r_beta	ankle_angle_r	subtalar_angle_r	mtp_angle_r	hip_flexion_l	hip_adduction_l	hip_rotation_l	knee_angle_l	knee_angle_l_beta	ankle_angle_l	subtalar_angle_l	mtp_angle_l	L5_S1_Flex_Ext	L5_S1_Lat_Bending	L5_S1_axial_rotation	L4_L5_Flex_Ext	L4_L5_Lat_Bending	L4_L5_axial_rotation	L3_L4_Flex_Ext	L3_L4_Lat_Bending	L3_L4_axial_rotation	L2_L3_Flex_Ext	L2_L3_Lat_Bending	L2_L3_axial_rotation	L1_L2_Flex_Ext	L1_L2_Lat_Bending	L1_L2_axial_rotation	L1_T12_Flex_Ext	L1_T12_Lat_Bending	L1_T12_axial_rotation	Abs_r3	Abs_r2	Abs_r1	Abs_t1	Abs_t2	neck_flexion	neck_bending	neck_rotation	arm_flex_r	arm_add_r	arm_rot_r	elbow_flex_r	pro_sup_r	wrist_flex_r	wrist_dev_r	arm_flex_l	arm_add_l	arm_rot_l	elbow_flex_l	pro_sup_l	wrist_flex_l	wrist_dev_l
2.866667	3.364514	-5.957888	97.459923	0.170428	0.679574	0.519467	4.370585	5.065678	-14.690104	12.053594	0.210375	33.671687	-1.386623	0.000000	2.251310	-4.062433	-1.613703	7.209146	0.125823	32.790688	12.986733	0.000000	-0.119453	0.996648	-2.123854	-0.221837	1.325542	-2.256595	-0.196250	2.423251	-2.256595	-0.136523	2.423251	-1.858372	-0.110924	2.032365	-1.725631	-0.068256	1.543808	-1.592890	-0.853243	11.274285	-11.812238	0.000000	0.000000	17.771328	-5.225673	-0.705282	16.994442	-16.015246	64.482011	53.330219	80.791010	9.565712	-0.570382	8.552736	-8.348169	49.421648	51.231539	47.694373	1.156054	-0.231284
2.883333	3.454684	-5.700431	98.135272	0.169727	0.679311	0.518778	3.947975	5.202514	-15.515055	11.942903	0.208443	33.716864	-1.338527	0.000000	2.060601	-4.243679	-1.157899	7.269411	0.126875	33.002546	13.439378	0.000000	-0.117449	1.009050	-2.246740	-0.218114	1.342037	-2.387161	-0.192957	2.453405	-2.387161	-0.134232	2.453405	-1.965898	-0.109063	2.057656	-1.825476	-0.067110	1.563019	-1.685055	-0.838926	11.414580	-12.495694	0.000000	0.000000	18.039359	-5.750804	-0.672003	17.033941	-15.956839	63.786147	53.545065	83.063882	9.731274	-0.307710	8.760655	-8.185370	48.402163	51.412802	50.041506	1.559765	1.174326
2.900000	3.531132	-5.427255	98.763030	0.169143	0.679056	0.518012	3.496005	5.339829	-16.258242	11.809652	0.206117	33.798780	-1.229588	0.000000	1.821902	-4.413028	-0.686252	7.282664	0.127106	33.241712	13.840814	0.000000	-0.115415	1.018441	-2.364125	-0.214338	1.354527	-2.511883	-0.189616	2.476238	-2.511883	-0.131908	2.476238	-2.068609	-0.107175	2.076806	-1.920852	-0.065948	1.577566	-1.773094	-0.824399	11.520813	-13.148554	0.000000	0.000000	18.332730	-6.192615	-0.556531	17.093918	-15.878276	63.313995	53.705907	84.795615	9.909165	0.052618	8.882228	-8.014281	47.273893	51.553471	52.288109	2.125522	2.736540
2.916667	3.594589	-5.149891	99.320510	0.168710	0.678804	0.517183	3.032824	5.475801	-16.903674	11.661866	0.203538	33.926450	-1.051227	0.000000	1.544035	-4.570232	-0.252512	7.249279	0.126524	33.485565	14.202696	0.000000	-0.112162	1.024526	-2.467191	-0.208297	1.362619	-2.621391	-0.184272	2.491032	-2.621391	-0.128190	2.491032	-2.158792	-0.104154	2.089213	-2.004593	-0.064090	1.586990	-1.850394	-0.801165	11.589641	-13.721778	0.000000	0.000000	18.641251	-6.569390	-0.429652	17.144036	-15.778785	63.053873	53.789228	85.690863	10.105072	0.566687	8.964040	-7.859048	46.230027	51.632974	54.320215	2.680625	4.308709
2.933333	3.654906	-4.863717	99.766819	0.168448	0.678579	0.516322	2.560289	5.620963	-17.408053	11.501230	0.200734	34.089561	-0.824044	0.000000	1.213388	-4.719313	0.156210	7.160879	0.124981	33.702088	14.422340	0.000000	-0.110237	1.029062	-2.546827	-0.204722	1.368652	-2.706004	-0.181109	2.502061	-2.706004	-0.125990	2.502061	-2.228474	-0.102366	2.098463	-2.069297	-0.062990	1.594017	-1.910121	-0.787414	11.640952	-14.164690	0.000000	0.000000	18.975060	-6.906743	-0.321430	17.213342	-15.667427	63.066340	53.771739	85.604365	10.360090	1.201722	9.098512	-7.736188	45.518323	51.621023	55.823993	3.263269	5.789367
2.950000	3.711214	-4.603515	100.132657	0.168322	0.678319	0.515419	2.117499	5.767909	-17.809752	11.326993	0.197693	34.291724	-0.553359	0.000000	0.875671	-4.862554	0.493760	7.030776	0.122710	33.909537	14.630603	0.000000	-0.104571	1.031761	-2.612598	-0.194198	1.372243	-2.775886	-0.171799	2.508625	-2.775886	-0.119514	2.508625	-2.286023	-0.097104	2.103968	-2.122736	-0.059752	1.598198	-1.959449	-0.746937	11.671492	-14.530488	0.000000	0.000000	19.352655	-7.193213	-0.198158	17.282901	-15.552337	63.347849	53.701903	84.611426	10.506358	1.944060	9.217625	-7.651844	45.042064	51.560308	57.016312	3.772390	7.034202
2.966667	3.763853	-4.372945	100.356090	0.168378	0.678044	0.514509	1.715711	5.918374	-18.010116	11.142462	0.194473	34.530513	-0.280491	0.000000	0.521809	-4.993213	0.782103	6.847647	0.119514	34.072581	14.702723	0.000000	-0.096118	1.032934	-2.652730	-0.178500	1.373802	-2.818526	-0.157912	2.511476	-2.818526	-0.109853	2.511476	-2.321139	-0.089255	2.106359	-2.155343	-0.054922	1.600015	-1.989547	-0.686559	11.684755	-14.753688	0.000000	0.000000	19.762955	-7.424988	-0.108284	17.373297	-15.427400	63.883181	53.525797	82.869214	10.644762	2.634163	9.382280	-7.607169	44.922859	51.428177	57.534513	4.263608	8.142336
2.983333	3.819414	-4.160547	100.456077	0.168600	0.677764	0.513684	1.362176	6.071820	-18.045271	10.977074	0.191586	34.800377	-0.010750	0.000000	0.154014	-5.124342	0.915402	6.626517	0.115655	34.227353	14.796985	0.000000	-0.089397	1.033885	-2.670035	-0.166018	1.375067	-2.836913	-0.146870	2.513788	-2.836913	-0.102171	2.513788	-2.336281	-0.083014	2.108298	-2.169404	-0.051081	1.601488	-2.002527	-0.638551	11.695513	-14.849936	0.000000	0.000000	20.242556	-7.646092	-0.046804	17.450071	-15.286791	64.442044	53.238572	81.211274	10.799575	3.114393	9.623556	-7.596661	45.143950	51.183553	57.872010	4.694018	8.975747
3.000000	3.870621	-3.980218	100.426660	0.168992	0.677455	0.512963	1.071799	6.215658	-17.917440	10.835955	0.189123	35.094703	0.246120	0.000000	-0.215902	-5.241300	0.958263	6.361871	0.111036	34.360256	14.831333	0.000000	-0.082533	1.033908	-2.670414	-0.153272	1.375098	-2.837315	-0.135593	2.513844	-2.837315	-0.094327	2.513844	-2.336612	-0.076640	2.108345	-2.169711	-0.047159	1.601523	-2.002811	-0.589524	11.695773	-14.852042	0.000000	0.000000	20.779955	-7.826553	0.010330	17.572175	-15.126200	65.154198	52.846711	79.543605	10.904782	3.343487	9.886300	-7.616464	45.565930	50.865750	57.972768	5.033616	9.557819
3.016667	3.919066	-3.834542	100.289145	0.169512	0.677110	0.512396	0.848772	6.345357	-17.676650	10.726961	0.187221	35.399200	0.493568	0.000000	-0.571093	-5.343254	0.941105	6.069174	0.105927	34.469038	14.798283	0.000000	-0.075507	1.033703	-2.657553	-0.140224	1.374825	-2.823650	-0.124050	2.513346	-2.823650	-0.086297	2.513346	-2.325359	-0.070116	2.107927	-2.159262	-0.043145	1.601206	-1.993165	-0.539337	11.693457	-14.780513	0.000000	0.000000	21.368465	-7.970614	0.064188	17.732303	-14.950979	65.957962	52.364515	77.951341	10.985431	3.359780	10.184285	-7.657363	46.185309	50.469352	57.840008	5.268710	9.864022
3.033333	3.962912	-3.717628	100.053196	0.170147	0.676729	0.512055	0.694174	6.453624	-17.398982	10.672046	0.186262	35.690755	0.755583	0.000000	-0.902297	-5.430774	0.793445	5.767695	0.100665	34.581275	14.801998	0.000000	-0.069867	1.033308	-2.626429	-0.129749	1.374300	-2.790581	-0.114784	2.512386	-2.790581	-0.079851	2.512386	-2.298125	-0.064878	2.107122	-2.133973	-0.039922	1.600595	-1.969822	-0.499050	11.688990	-14.607409	0.000000	0.000000	21.986678	-8.127236	0.058209	17.929009	-14.786132	66.809741	51.812626	76.656834	10.973722	3.081129	10.614242	-7.734804	47.219437	49.968147	57.050760	5.430893	9.889984
3.050000	3.997236	-3.643102	99.739925	0.170856	0.676280	0.511874	0.602493	6.531506	-17.116907	10.653320	0.185936	35.950164	1.030675	0.000000	-1.200791	-5.492383	0.653484	5.448015	0.095086	34.666966	14.708308	0.000000	-0.063304	1.032515	-2.590411	-0.117562	1.373246	-2.752311	-0.104002	2.510458	-2.752311	-0.072350	2.510458	-2.266609	-0.058784	2.105505	-2.104709	-0.036172	1.599366	-1.942808	-0.452173	11.680021	-14.407087	0.000000	0.000000	22.608690	-8.247313	0.063267	18.145060	-14.598994	67.665941	51.202401	75.531685	11.029960	2.748803	11.013247	-7.804898	48.184680	49.438927	56.452164	5.502123	9.812487
3.066667	4.018326	-3.594617	99.388617	0.171576	0.675795	0.511861	0.554481	6.579183	-16.854939	10.674243	0.186301	36.145376	1.260375	0.000000	-1.466188	-5.527820	0.454406	5.133023	0.089588	34.728200	14.632096	0.000000	-0.057903	1.031132	-2.552064	-0.107532	1.371405	-2.711568	-0.095129	2.507094	-2.711568	-0.066177	2.507094	-2.233056	-0.053769	2.102684	-2.073552	-0.033086	1.597223	-1.914048	-0.413595	11.664370	-14.193812	0.000000	0.000000	23.182352	-8.355602	0.044990	18.372648	-14.399354	68.486972	50.549476	74.779147	11.080893	2.323049	11.451630	-7.876872	49.272165	48.860804	55.593121	5.409534	9.585068
3.083333	4.025167	-3.574151	98.982847	0.172330	0.675265	0.511954	0.545016	6.599507	-16.572739	10.730830	0.187288	36.252524	1.391160	0.000000	-1.710223	-5.532628	0.283748	4.809560	0.083943	34.740169	14.439937	0.000000	-0.053242	1.029084	-2.510331	-0.098875	1.368681	-2.667227	-0.087471	2.502114	-2.667227	-0.060850	2.502114	-2.196540	-0.049440	2.098507	-2.039644	-0.030422	1.594050	-1.882748	-0.380300	11.641199	-13.961709	0.000000	0.000000	23.683179	-8.437720	0.031850	18.603795	-14.184162	69.272771	49.881578	74.000277	11.172986	1.997664	11.829160	-7.897270	50.142740	48.279852	54.894187	5.226076	9.365474
3.100000	4.020982	-3.570739	98.558912	0.173098	0.674713	0.512095	0.545424	6.604119	-16.291976	10.792746	0.188369	36.254094	1.422357	0.000000	-1.941816	-5.516276	0.173070	4.478104	0.078158	34.692354	14.146868	0.000000	-0.049690	1.026341	-2.472786	-0.092280	1.365034	-2.627335	-0.081636	2.495445	-2.627335	-0.056791	2.495445	-2.163688	-0.046142	2.092915	-2.009139	-0.028393	1.589802	-1.854589	-0.354933	11.610175	-13.752893	0.000000	0.000000	24.093686	-8.494316	0.024037	18.838864	-13.945693	70.006763	49.194087	73.180421	11.326287	1.765886	12.100248	-7.844527	50.652478	47.730685	54.422347	4.959411	9.224511
3.116667	3.992141	-3.564062	98.123860	0.173880	0.674175	0.512282	0.535801	6.583874	-16.017014	10.861507	0.189569	36.162380	1.343171	0.000000	-2.179760	-5.469489	0.061200	4.147051	0.072380	34.608728	13.836450	0.000000	-0.049589	1.021380	-2.434805	-0.092092	1.358435	-2.586980	-0.081470	2.483383	-2.586980	-0.056675	2.483383	-2.130454	-0.046048	2.082798	-1.978279	-0.028335	1.582117	-1.826104	-0.354209	11.554052	-13.541655	0.000000	0.000000	24.404897	-8.530844	0.023600	19.108574	-13.709244	70.783554	48.537907	71.683447	11.529344	1.817231	12.315286	-7.766520	51.010497	47.223577	53.954428	4.503383	8.913973
3.133333	3.949913	-3.557855	97.705778	0.174681	0.673652	0.512453	0.511650	6.556672	-15.728784	10.917956	0.190554	35.985106	1.134359	0.000000	-2.413094	-5.407072	0.022967	3.824311	0.066747	34.493556	13.451527	0.000000	-0.050416	1.014237	-2.403283	-0.093627	1.348936	-2.553488	-0.082828	2.466017	-2.553488	-0.057620	2.466017	-2.102872	-0.046816	2.068233	-1.952667	-0.028807	1.571054	-1.802462	-0.360113	11.473257	-13.366338	0.000000	0.000000	24.623394	-8.520081	0.037403	19.380301	-13.466643	71.469551	47.919474	70.314372	11.719583	1.890530	12.337860	-7.582729	50.727658	46.829966	53.981549	4.074523	8.852219
3.150000	3.892622	-3.522036	97.323277	0.175488	0.673213	0.512584	0.433630	6.528641	-15.444720	10.944831	0.191023	35.730570	0.839165	0.000000	-2.676223	-5.331752	0.106145	3.499966	0.061086	34.352280	12.939821	0.000000	-0.055128	1.004559	-2.375965	-0.102379	1.336063	-2.524463	-0.090570	2.442484	-2.524463	-0.063006	2.442484	-2.078969	-0.051192	2.048496	-1.930472	-0.031500	1.556061	-1.781974	-0.393775	11.363768	-13.214404	0.000000	0.000000	24.764870	-8.471623	0.057038	19.625604	-13.217523	71.953445	47.351768	69.581076	11.860525	1.814565	12.217341	-7.323973	49.959717	46.548383	54.247165	3.649326	8.969208
3.166667	3.819318	-3.480472	96.976198	0.176287	0.672828	0.512641	0.331833	6.496245	-15.137767	10.951550	0.191141	35.434120	0.417672	0.000000	-2.935505	-5.239726	0.320596	3.194629	0.055757	34.213691	12.313941	0.000000	-0.056933	0.991798	-2.345260	-0.105731	1.319092	-2.491839	-0.093536	2.411459	-2.491839	-0.065069	2.411459	-2.052102	-0.052868	2.022475	-1.905524	-0.032532	1.536296	-1.758945	-0.406669	11.219422	-13.043631	0.000000	0.000000	24.805300	-8.404090	0.043107	19.811614	-12.994618	72.218337	46.893672	69.403655	12.048102	1.689927	11.924503	-6.983405	48.699189	46.400396	54.832019	3.238774	9.276836
